<?xml version="1.0" encoding="UTF-8"?>
<!DOCTYPE svg PUBLIC "-//W3C//DTD SVG 1.1//EN" "http://www.w3.org/Graphics/SVG/1.1/DTD/svg11.dtd">
<svg xmlns="http://www.w3.org/2000/svg" version="1.1" width="512px" height="512px" style="shape-rendering:geometricPrecision; text-rendering:geometricPrecision; image-rendering:optimizeQuality; fill-rule:evenodd; clip-rule:evenodd" xmlns:xlink="http://www.w3.org/1999/xlink">
<g><path style="opacity:0.947" fill="#4b231c" d="M 29.5,-0.5 C 32.5,-0.5 35.5,-0.5 38.5,-0.5C 46.1615,7.32887 53.6615,15.3289 61,23.5C 61.2773,33.1134 56.7773,36.6134 47.5,34C 40.6667,27.1667 33.8333,20.3333 27,13.5C 24.418,8.11978 25.2514,3.45312 29.5,-0.5 Z"/></g>
<g><path style="opacity:0.943" fill="#4b241c" d="M 90.5,-0.5 C 93.5,-0.5 96.5,-0.5 99.5,-0.5C 103.749,3.45312 104.582,8.11978 102,13.5C 95.1667,20.3333 88.3333,27.1667 81.5,34C 72.2227,36.6134 67.7227,33.1134 68,23.5C 75.3385,15.3289 82.8385,7.32887 90.5,-0.5 Z"/></g>
<g><path style="opacity:0.945" fill="#4b231d" d="M 372.5,18.5 C 384.699,20.5648 388.199,27.2315 383,38.5C 376.342,44.0241 370.009,43.6908 364,37.5C 359.799,27.934 362.633,21.6007 372.5,18.5 Z"/></g>
<g><path style="opacity:0.938" fill="#4c241d" d="M 49.5,41.5 C 59.3581,41.5148 62.8581,46.1815 60,55.5C 53.1667,62.3333 46.3333,69.1667 39.5,76C 28.9027,79.4053 24.4027,75.572 26,64.5C 33.7285,56.6035 41.5618,48.9369 49.5,41.5 Z"/></g>
<g><path style="opacity:0.944" fill="#4b231d" d="M 74.5,41.5 C 76.9892,41.2978 79.3225,41.7978 81.5,43C 88.6667,50.1667 95.8333,57.3333 103,64.5C 104.597,75.572 100.097,79.4053 89.5,76C 82.6667,69.1667 75.8333,62.3333 69,55.5C 66.4486,48.9716 68.2819,44.305 74.5,41.5 Z"/></g>
<g><path style="opacity:0.975" fill="#4c241d" d="M 293.5,81.5 C 289.658,86.0598 284.992,87.2265 279.5,85C 277.284,82.4465 274.784,80.2799 272,78.5C 268.844,80.9861 265.678,83.4861 262.5,86C 254.225,86.7208 250.725,82.8875 252,74.5C 254.333,72.1667 256.667,69.8333 259,67.5C 259.692,66.5632 259.525,65.8966 258.5,65.5C 256.873,63.3702 255.04,61.3702 253,59.5C 249.723,54.6992 250.223,50.1992 254.5,46C 257.366,44.5432 260.366,44.2099 263.5,45C 266.646,47.3116 269.646,49.8116 272.5,52.5C 274.984,50.517 277.317,48.3504 279.5,46C 290.667,43.1667 294.833,47.3333 292,58.5C 289.65,60.6829 287.483,63.0163 285.5,65.5C 287.483,67.9837 289.65,70.3171 292,72.5C 293.289,75.3508 293.789,78.3508 293.5,81.5 Z"/></g>
<g><path style="opacity:0.965" fill="#4b231c" d="M 442.5,46.5 C 467.818,45.6466 478.318,57.6466 474,82.5C 465.556,98.1347 453.056,102.635 436.5,96C 422.14,85.3485 419.307,72.1819 428,56.5C 432.208,52.1025 437.042,48.7692 442.5,46.5 Z M 445.5,64.5 C 454.658,63.4906 458.492,67.4906 457,76.5C 450.731,83.4338 445.398,82.7671 441,74.5C 440.333,73.1667 440.333,71.8333 441,70.5C 442.332,68.34 443.832,66.34 445.5,64.5 Z"/></g>
<g><path style="opacity:0.995" fill="#c0dadb" d="M 258.5,65.5 C 259.525,65.8966 259.692,66.5632 259,67.5C 256.667,69.8333 254.333,72.1667 252,74.5C 250.725,82.8875 254.225,86.7208 262.5,86C 265.678,83.4861 268.844,80.9861 272,78.5C 274.784,80.2799 277.284,82.4465 279.5,85C 284.992,87.2265 289.658,86.0598 293.5,81.5C 321.615,99.783 344.115,123.45 361,152.5C 365.719,161.168 369.552,170.168 372.5,179.5C 349.069,144.635 317.736,134.801 278.5,150C 274.548,150.912 270.881,150.245 267.5,148C 254.563,130.731 237.229,123.231 215.5,125.5C 202.947,124.296 191.947,127.796 182.5,136C 174.167,145 165.833,154 157.5,163C 153.698,165.828 149.698,166.161 145.5,164C 137.282,155.071 128.949,146.238 120.5,137.5C 107.037,126.478 92.3705,124.644 76.5,132C 60.2494,142.695 54.7494,157.528 60,176.5C 65.3333,201.167 70.6667,225.833 76,250.5C 78.9327,270.791 77.5994,290.791 72,310.5C 65.0494,329.376 57.8828,348.042 50.5,366.5C 24.3295,336.54 9.49614,301.54 6,261.5C 1.59977,190.96 27.0998,134.127 82.5,91C 136.878,53.7007 195.545,45.2007 258.5,65.5 Z"/></g>
<g><path style="opacity:0.987" fill="#4c241e" d="M 372.5,179.5 C 376.565,185.066 381.231,190.232 386.5,195C 392.474,198.769 398.974,200.936 406,201.5C 416.605,199.621 427.272,198.288 438,197.5C 461.434,198.044 478.434,208.711 489,229.5C 493.714,242.186 494.714,255.186 492,268.5C 484.467,285.9 476.134,302.9 467,319.5C 460.693,336.745 462.026,353.412 471,369.5C 478.289,379.124 485.955,388.458 494,397.5C 509.356,417.094 510.356,437.428 497,458.5C 492.756,463.415 487.923,467.581 482.5,471C 473.577,474.53 464.577,477.863 455.5,481C 451.428,481.956 447.595,481.456 444,479.5C 443.209,478.255 442.709,476.922 442.5,475.5C 441.7,470.806 443.367,467.306 447.5,465C 458.796,462.017 469.463,457.684 479.5,452C 488.51,442.386 491.01,431.219 487,418.5C 477.049,404.881 466.716,391.548 456,378.5C 444.947,359.178 442.614,338.844 449,317.5C 458.529,299.108 467.529,280.442 476,261.5C 478.693,237.533 468.527,222.033 445.5,215C 440.5,214.333 435.5,214.333 430.5,215C 406.002,223.747 384.835,218.913 367,200.5C 359.62,190.909 352.12,181.409 344.5,172C 331.994,161.724 317.661,157.724 301.5,160C 294.769,162.133 288.102,164.466 281.5,167C 266.754,168.294 255.421,162.627 247.5,150C 242.804,146.319 237.471,143.986 231.5,143C 223.514,142.001 215.514,141.667 207.5,142C 202.787,143.19 198.453,145.19 194.5,148C 186.167,157 177.833,166 169.5,175C 157.75,183.271 145.75,183.605 133.5,176C 124.475,165.976 115.142,156.31 105.5,147C 88.5013,140.685 78.168,146.352 74.5,164C 81.6196,195.696 88.1196,227.53 94,259.5C 95.2544,278.533 93.2544,297.199 88,315.5C 81.7258,332.99 75.0591,350.323 68,367.5C 63.522,379.6 59.8553,391.933 57,404.5C 55.1829,418.947 56.8496,432.947 62,446.5C 66.9322,453.759 73.4322,459.259 81.5,463C 101.897,471.027 122.897,477.027 144.5,481C 222.336,498.048 300.336,498.881 378.5,483.5C 383.522,483.175 387.188,485.175 389.5,489.5C 389.825,494.382 387.825,497.882 383.5,500C 355.575,505.489 327.575,509.322 299.5,511.5C 278.5,511.5 257.5,511.5 236.5,511.5C 196.959,507.634 157.626,501.467 118.5,493C 105.938,490.109 93.605,486.443 81.5,482C 57.0048,473.846 43.1715,457.012 40,431.5C 37.6614,408.866 41.1614,387.199 50.5,366.5C 57.8828,348.042 65.0494,329.376 72,310.5C 77.5994,290.791 78.9327,270.791 76,250.5C 70.6667,225.833 65.3333,201.167 60,176.5C 54.7494,157.528 60.2494,142.695 76.5,132C 92.3705,124.644 107.037,126.478 120.5,137.5C 128.949,146.238 137.282,155.071 145.5,164C 149.698,166.161 153.698,165.828 157.5,163C 165.833,154 174.167,145 182.5,136C 191.947,127.796 202.947,124.296 215.5,125.5C 237.229,123.231 254.563,130.731 267.5,148C 270.881,150.245 274.548,150.912 278.5,150C 317.736,134.801 349.069,144.635 372.5,179.5 Z"/></g>
<g><path style="opacity:1" fill="#bc52b4" d="M 442.5,475.5 C 440.228,476.319 437.894,476.985 435.5,477.5C 433.185,473.009 429.518,471.176 424.5,472C 419.85,473.331 415.183,474.665 410.5,476C 406.81,478.169 405.143,481.336 405.5,485.5C 400.166,486.834 394.833,488.167 389.5,489.5C 387.188,485.175 383.522,483.175 378.5,483.5C 300.336,498.881 222.336,498.048 144.5,481C 122.897,477.027 101.897,471.027 81.5,463C 73.4322,459.259 66.9322,453.759 62,446.5C 56.8496,432.947 55.1829,418.947 57,404.5C 59.8553,391.933 63.522,379.6 68,367.5C 75.0591,350.323 81.7258,332.99 88,315.5C 93.2544,297.199 95.2544,278.533 94,259.5C 88.1196,227.53 81.6196,195.696 74.5,164C 78.168,146.352 88.5013,140.685 105.5,147C 115.142,156.31 124.475,165.976 133.5,176C 145.75,183.605 157.75,183.271 169.5,175C 177.833,166 186.167,157 194.5,148C 198.453,145.19 202.787,143.19 207.5,142C 215.514,141.667 223.514,142.001 231.5,143C 237.471,143.986 242.804,146.319 247.5,150C 255.421,162.627 266.754,168.294 281.5,167C 288.102,164.466 294.769,162.133 301.5,160C 317.661,157.724 331.994,161.724 344.5,172C 352.12,181.409 359.62,190.909 367,200.5C 384.835,218.913 406.002,223.747 430.5,215C 435.5,214.333 440.5,214.333 445.5,215C 468.527,222.033 478.693,237.533 476,261.5C 467.529,280.442 458.529,299.108 449,317.5C 442.614,338.844 444.947,359.178 456,378.5C 466.716,391.548 477.049,404.881 487,418.5C 491.01,431.219 488.51,442.386 479.5,452C 469.463,457.684 458.796,462.017 447.5,465C 443.367,467.306 441.7,470.806 442.5,475.5 Z"/></g>
<g><path style="opacity:1" fill="#4e2520" d="M 217.5,206.5 C 223.766,205.117 227.433,207.45 228.5,213.5C 227.592,219.959 223.926,222.459 217.5,221C 212.235,216.076 212.235,211.242 217.5,206.5 Z"/></g>
<g><path style="opacity:1" fill="#502523" d="M 315.5,217.5 C 323.87,217.681 327.037,221.681 325,229.5C 319.359,235.304 314.692,234.637 311,227.5C 310.333,225.833 310.333,224.167 311,222.5C 312.366,220.638 313.866,218.972 315.5,217.5 Z"/></g>
<g><path style="opacity:1" fill="#4d241f" d="M 175.5,232.5 C 233.734,245.523 292.734,251.023 352.5,249C 357.224,251.435 358.724,255.269 357,260.5C 355.457,262.378 353.624,263.878 351.5,265C 295.949,267.568 240.949,263.235 186.5,252C 182.079,250.984 177.745,249.651 173.5,248C 167.859,242.036 168.526,236.869 175.5,232.5 Z"/></g>
<g><path style="opacity:0.969" fill="#4d241e" d="M 435.5,477.5 C 436.757,483.156 434.757,486.989 429.5,489C 423.302,491.137 416.969,492.137 410.5,492C 407.507,490.841 405.84,488.675 405.5,485.5C 405.143,481.336 406.81,478.169 410.5,476C 415.183,474.665 419.85,473.331 424.5,472C 429.518,471.176 433.185,473.009 435.5,477.5 Z"/></g>
</svg>
